<svg width="162" height="71" viewBox="0 0 162 71" fill="none" xmlns="http://www.w3.org/2000/svg">
<g filter="url(#filter0_d)">
<rect width="162" height="46" rx="23" fill="#54E6AF"/>
</g>
<path d="M36.072 27.916C35.764 28.0373 35.3627 28.098 34.868 28.098C34.392 28.098 34.0047 27.9813 33.706 27.748C33.4073 27.5147 33.258 27.1227 33.258 26.572C33.258 25.7693 33.1507 25.144 32.936 24.696C32.7307 24.248 32.3387 24.024 31.76 24.024H30.136V28H28.008V18.396H32.306C33.2207 18.396 33.986 18.5827 34.602 18.956C35.2273 19.3293 35.54 19.936 35.54 20.776C35.54 21.112 35.4653 21.4433 35.316 21.77C35.1667 22.0967 34.9567 22.3767 34.686 22.61C34.4247 22.8433 34.1353 22.988 33.818 23.044V23.114C34.2287 23.2447 34.588 23.5247 34.896 23.954C35.204 24.3833 35.358 24.9573 35.358 25.676C35.358 26.7027 35.596 27.2907 36.072 27.44V27.916ZM32.236 22.33C32.544 22.33 32.8053 22.2273 33.02 22.022C33.244 21.8167 33.356 21.5693 33.356 21.28V21.182C33.356 20.874 33.2487 20.622 33.034 20.426C32.8287 20.2207 32.5627 20.118 32.236 20.118H30.136V22.33H32.236ZM43.8705 25.326C43.8705 25.9513 43.7212 26.4787 43.4225 26.908C43.1239 27.328 42.7272 27.6407 42.2325 27.846C41.7472 28.042 41.2152 28.14 40.6365 28.14H40.4125C39.7499 28.14 39.1525 28 38.6205 27.72C38.0885 27.44 37.6685 27.0387 37.3605 26.516C37.0619 25.984 36.9125 25.354 36.9125 24.626V24.22C36.9125 23.5013 37.0665 22.876 37.3745 22.344C37.6825 21.812 38.0979 21.406 38.6205 21.126C39.1525 20.846 39.7499 20.706 40.4125 20.706H40.6365C41.2152 20.706 41.7519 20.8273 42.2465 21.07C42.7412 21.3033 43.1379 21.6487 43.4365 22.106C43.7352 22.554 43.8845 23.086 43.8845 23.702V24.766H38.9845V25.102C38.9845 25.5687 39.1199 25.9607 39.3905 26.278C39.6705 26.586 40.0485 26.74 40.5245 26.74C40.9539 26.74 41.2899 26.6233 41.5325 26.39C41.7845 26.1473 41.9105 25.7927 41.9105 25.326H43.8705ZM40.4265 22.106C40.0159 22.106 39.6799 22.2507 39.4185 22.54C39.1665 22.8293 39.0219 23.198 38.9845 23.646H41.8125C41.8125 23.17 41.7005 22.7967 41.4765 22.526C41.2619 22.246 40.9119 22.106 40.4265 22.106ZM49.8343 27.174C49.629 27.4447 49.3537 27.6733 49.0083 27.86C48.6723 28.0467 48.2803 28.14 47.8323 28.14C47.3097 28.14 46.8383 28.0047 46.4183 27.734C46.0077 27.4633 45.681 27.0573 45.4383 26.516C45.1957 25.9747 45.0743 25.3167 45.0743 24.542V24.388C45.0743 23.576 45.205 22.8947 45.4663 22.344C45.7277 21.7933 46.0823 21.3827 46.5303 21.112C46.9783 20.8413 47.4823 20.706 48.0423 20.706C48.5557 20.706 49.013 20.8133 49.4143 21.028C49.8157 21.2333 50.1517 21.5367 50.4223 21.938L50.6603 21.574C50.7537 21.4153 50.8423 21.28 50.9263 21.168C51.0103 21.0467 51.0803 20.9393 51.1363 20.846H51.8783V30.52H49.8343V27.174ZM47.1463 24.962C47.1463 25.5033 47.2723 25.9233 47.5243 26.222C47.7763 26.5113 48.0983 26.656 48.4903 26.656C48.8823 26.656 49.2043 26.5113 49.4563 26.222C49.7083 25.9233 49.8343 25.5033 49.8343 24.962V23.8C49.8343 23.2493 49.7083 22.8293 49.4563 22.54C49.2043 22.2507 48.8823 22.106 48.4903 22.106C48.0983 22.106 47.7763 22.2507 47.5243 22.54C47.2723 22.8293 47.1463 23.2493 47.1463 23.8V24.962ZM60.2465 26.32C60.2465 26.46 60.2885 26.5673 60.3725 26.642C60.4565 26.7073 60.5498 26.74 60.6525 26.74C60.7458 26.74 60.8485 26.7213 60.9605 26.684C61.0725 26.6467 61.1612 26.614 61.2265 26.586V27.846C60.8812 28.042 60.4705 28.14 59.9945 28.14C59.0612 28.14 58.5198 27.7993 58.3705 27.118C57.7825 27.7993 57.0638 28.14 56.2145 28.14C55.4865 28.14 54.8845 27.944 54.4085 27.552C53.9418 27.16 53.7085 26.5907 53.7085 25.844V20.846H55.7525V25.396C55.7525 25.76 55.8552 26.0633 56.0605 26.306C56.2752 26.5393 56.5458 26.656 56.8725 26.656C57.2365 26.656 57.5492 26.5207 57.8105 26.25C58.0718 25.97 58.2025 25.634 58.2025 25.242V20.846H60.2465V26.32ZM68.9448 25.326C68.9448 25.9513 68.7954 26.4787 68.4968 26.908C68.1981 27.328 67.8014 27.6407 67.3068 27.846C66.8214 28.042 66.2894 28.14 65.7108 28.14H65.4868C64.8241 28.14 64.2268 28 63.6948 27.72C63.1628 27.44 62.7428 27.0387 62.4348 26.516C62.1361 25.984 61.9868 25.354 61.9868 24.626V24.22C61.9868 23.5013 62.1408 22.876 62.4488 22.344C62.7568 21.812 63.1721 21.406 63.6948 21.126C64.2268 20.846 64.8241 20.706 65.4868 20.706H65.7108C66.2894 20.706 66.8261 20.8273 67.3208 21.07C67.8154 21.3033 68.2121 21.6487 68.5108 22.106C68.8094 22.554 68.9588 23.086 68.9588 23.702V24.766H64.0588V25.102C64.0588 25.5687 64.1941 25.9607 64.4648 26.278C64.7448 26.586 65.1228 26.74 65.5988 26.74C66.0281 26.74 66.3641 26.6233 66.6068 26.39C66.8588 26.1473 66.9848 25.7927 66.9848 25.326H68.9448ZM65.5008 22.106C65.0901 22.106 64.7541 22.2507 64.4928 22.54C64.2408 22.8293 64.0961 23.198 64.0588 23.646H66.8868C66.8868 23.17 66.7748 22.7967 66.5508 22.526C66.3361 22.246 65.9861 22.106 65.5008 22.106ZM71.7725 25.816C71.7725 26.1427 71.9172 26.3807 72.2065 26.53C72.4959 26.67 72.8552 26.74 73.2845 26.74C73.6579 26.74 73.9892 26.684 74.2785 26.572C74.5772 26.46 74.7265 26.2827 74.7265 26.04C74.7265 25.7787 74.5912 25.592 74.3205 25.48C74.0499 25.368 73.6299 25.27 73.0605 25.186C72.4632 25.0833 71.9732 24.9713 71.5905 24.85C71.2079 24.7287 70.8765 24.5187 70.5965 24.22C70.3259 23.9213 70.1905 23.506 70.1905 22.974C70.1905 22.4887 70.3305 22.078 70.6105 21.742C70.8999 21.3967 71.2779 21.14 71.7445 20.972C72.2205 20.7947 72.7385 20.706 73.2985 20.706H73.5785C74.0732 20.706 74.5399 20.79 74.9785 20.958C75.4265 21.1167 75.7859 21.3453 76.0565 21.644C76.3272 21.9333 76.4625 22.2647 76.4625 22.638C76.4625 22.7127 76.4579 22.7827 76.4485 22.848C76.4392 22.904 76.4345 22.9367 76.4345 22.946H74.6425C74.6425 22.386 74.2132 22.106 73.3545 22.106C72.9625 22.106 72.6452 22.162 72.4025 22.274C72.1692 22.386 72.0525 22.54 72.0525 22.736C72.0525 22.9693 72.1785 23.1327 72.4305 23.226C72.6919 23.3193 73.0979 23.408 73.6485 23.492C74.2739 23.5947 74.7779 23.7067 75.1605 23.828C75.5525 23.94 75.8932 24.15 76.1825 24.458C76.4719 24.7567 76.6165 25.1813 76.6165 25.732C76.6165 26.5813 76.3179 27.1973 75.7205 27.58C75.1232 27.9533 74.3625 28.14 73.4385 28.14H72.9765C72.3979 28.14 71.8799 28.0513 71.4225 27.874C70.9652 27.6967 70.6059 27.4447 70.3445 27.118C70.0925 26.7913 69.9665 26.418 69.9665 25.998L69.9805 25.718H71.7725V25.816ZM81.9094 27.874C81.7228 27.9487 81.4754 28.0093 81.1674 28.056C80.8688 28.112 80.6028 28.14 80.3694 28.14C79.6508 28.14 79.1094 27.986 78.7454 27.678C78.3814 27.37 78.1994 26.8567 78.1994 26.138V22.246H77.4154V20.846H78.2694L78.9834 18.564H80.2434V20.846H81.9094V22.246H80.2434V25.788C80.2434 26.1613 80.3134 26.4133 80.4534 26.544C80.6028 26.6747 80.7988 26.74 81.0414 26.74C81.1534 26.74 81.2981 26.7213 81.4754 26.684C81.6528 26.6467 81.7974 26.6047 81.9094 26.558V27.874ZM91.9869 26.11H88.1649L87.4929 28H85.4069L88.8929 18.396H91.4689L94.9549 28H92.6869L91.9869 26.11ZM88.7529 24.472H91.4129C91.0582 23.4173 90.6289 22.162 90.1249 20.706H90.0549L88.7529 24.472ZM97.6506 25.102C97.6506 25.5687 97.7719 25.9607 98.0146 26.278C98.2572 26.586 98.5839 26.74 98.9946 26.74C99.4239 26.74 99.7599 26.6093 100.003 26.348C100.255 26.0773 100.381 25.6807 100.381 25.158H102.313C102.313 25.8207 102.168 26.376 101.879 26.824C101.599 27.272 101.225 27.6033 100.759 27.818C100.292 28.0327 99.7786 28.14 99.2186 28.14H98.9946C97.9492 28.14 97.1186 27.832 96.5026 27.216C95.8866 26.5907 95.5786 25.7273 95.5786 24.626V24.22C95.5786 23.492 95.7232 22.8667 96.0126 22.344C96.3112 21.812 96.7172 21.406 97.2306 21.126C97.7439 20.846 98.3319 20.706 98.9946 20.706H99.2186C99.7692 20.706 100.278 20.8273 100.745 21.07C101.221 21.3033 101.599 21.6487 101.879 22.106C102.168 22.554 102.313 23.086 102.313 23.702H100.283C100.283 23.2167 100.175 22.8293 99.9606 22.54C99.7459 22.2507 99.4286 22.106 99.0086 22.106C98.5886 22.106 98.2572 22.274 98.0146 22.61C97.7719 22.9367 97.6506 23.352 97.6506 23.856V25.102ZM105.594 25.102C105.594 25.5687 105.715 25.9607 105.958 26.278C106.201 26.586 106.527 26.74 106.938 26.74C107.367 26.74 107.703 26.6093 107.946 26.348C108.198 26.0773 108.324 25.6807 108.324 25.158H110.256C110.256 25.8207 110.111 26.376 109.822 26.824C109.542 27.272 109.169 27.6033 108.702 27.818C108.235 28.0327 107.722 28.14 107.162 28.14H106.938C105.893 28.14 105.062 27.832 104.446 27.216C103.83 26.5907 103.522 25.7273 103.522 24.626V24.22C103.522 23.492 103.667 22.8667 103.956 22.344C104.255 21.812 104.661 21.406 105.174 21.126C105.687 20.846 106.275 20.706 106.938 20.706H107.162C107.713 20.706 108.221 20.8273 108.688 21.07C109.164 21.3033 109.542 21.6487 109.822 22.106C110.111 22.554 110.256 23.086 110.256 23.702H108.226C108.226 23.2167 108.119 22.8293 107.904 22.54C107.689 22.2507 107.372 22.106 106.952 22.106C106.532 22.106 106.201 22.274 105.958 22.61C105.715 22.9367 105.594 23.352 105.594 23.856V25.102ZM118.423 25.326C118.423 25.9513 118.274 26.4787 117.975 26.908C117.677 27.328 117.28 27.6407 116.785 27.846C116.3 28.042 115.768 28.14 115.189 28.14H114.965C114.303 28.14 113.705 28 113.173 27.72C112.641 27.44 112.221 27.0387 111.913 26.516C111.615 25.984 111.465 25.354 111.465 24.626V24.22C111.465 23.5013 111.619 22.876 111.927 22.344C112.235 21.812 112.651 21.406 113.173 21.126C113.705 20.846 114.303 20.706 114.965 20.706H115.189C115.768 20.706 116.305 20.8273 116.799 21.07C117.294 21.3033 117.691 21.6487 117.989 22.106C118.288 22.554 118.437 23.086 118.437 23.702V24.766H113.537V25.102C113.537 25.5687 113.673 25.9607 113.943 26.278C114.223 26.586 114.601 26.74 115.077 26.74C115.507 26.74 115.843 26.6233 116.085 26.39C116.337 26.1473 116.463 25.7927 116.463 25.326H118.423ZM114.979 22.106C114.569 22.106 114.233 22.2507 113.971 22.54C113.719 22.8293 113.575 23.198 113.537 23.646H116.365C116.365 23.17 116.253 22.7967 116.029 22.526C115.815 22.246 115.465 22.106 114.979 22.106ZM121.251 25.816C121.251 26.1427 121.396 26.3807 121.685 26.53C121.974 26.67 122.334 26.74 122.763 26.74C123.136 26.74 123.468 26.684 123.757 26.572C124.056 26.46 124.205 26.2827 124.205 26.04C124.205 25.7787 124.07 25.592 123.799 25.48C123.528 25.368 123.108 25.27 122.539 25.186C121.942 25.0833 121.452 24.9713 121.069 24.85C120.686 24.7287 120.355 24.5187 120.075 24.22C119.804 23.9213 119.669 23.506 119.669 22.974C119.669 22.4887 119.809 22.078 120.089 21.742C120.378 21.3967 120.756 21.14 121.223 20.972C121.699 20.7947 122.217 20.706 122.777 20.706H123.057C123.552 20.706 124.018 20.79 124.457 20.958C124.905 21.1167 125.264 21.3453 125.535 21.644C125.806 21.9333 125.941 22.2647 125.941 22.638C125.941 22.7127 125.936 22.7827 125.927 22.848C125.918 22.904 125.913 22.9367 125.913 22.946H124.121C124.121 22.386 123.692 22.106 122.833 22.106C122.441 22.106 122.124 22.162 121.881 22.274C121.648 22.386 121.531 22.54 121.531 22.736C121.531 22.9693 121.657 23.1327 121.909 23.226C122.17 23.3193 122.576 23.408 123.127 23.492C123.752 23.5947 124.256 23.7067 124.639 23.828C125.031 23.94 125.372 24.15 125.661 24.458C125.95 24.7567 126.095 25.1813 126.095 25.732C126.095 26.5813 125.796 27.1973 125.199 27.58C124.602 27.9533 123.841 28.14 122.917 28.14H122.455C121.876 28.14 121.358 28.0513 120.901 27.874C120.444 27.6967 120.084 27.4447 119.823 27.118C119.571 26.7913 119.445 26.418 119.445 25.998L119.459 25.718H121.251V25.816ZM128.798 25.816C128.798 26.1427 128.943 26.3807 129.232 26.53C129.521 26.67 129.881 26.74 130.31 26.74C130.683 26.74 131.015 26.684 131.304 26.572C131.603 26.46 131.752 26.2827 131.752 26.04C131.752 25.7787 131.617 25.592 131.346 25.48C131.075 25.368 130.655 25.27 130.086 25.186C129.489 25.0833 128.999 24.9713 128.616 24.85C128.233 24.7287 127.902 24.5187 127.622 24.22C127.351 23.9213 127.216 23.506 127.216 22.974C127.216 22.4887 127.356 22.078 127.636 21.742C127.925 21.3967 128.303 21.14 128.77 20.972C129.246 20.7947 129.764 20.706 130.324 20.706H130.604C131.099 20.706 131.565 20.79 132.004 20.958C132.452 21.1167 132.811 21.3453 133.082 21.644C133.353 21.9333 133.488 22.2647 133.488 22.638C133.488 22.7127 133.483 22.7827 133.474 22.848C133.465 22.904 133.46 22.9367 133.46 22.946H131.668C131.668 22.386 131.239 22.106 130.38 22.106C129.988 22.106 129.671 22.162 129.428 22.274C129.195 22.386 129.078 22.54 129.078 22.736C129.078 22.9693 129.204 23.1327 129.456 23.226C129.717 23.3193 130.123 23.408 130.674 23.492C131.299 23.5947 131.803 23.7067 132.186 23.828C132.578 23.94 132.919 24.15 133.208 24.458C133.497 24.7567 133.642 25.1813 133.642 25.732C133.642 26.5813 133.343 27.1973 132.746 27.58C132.149 27.9533 131.388 28.14 130.464 28.14H130.002C129.423 28.14 128.905 28.0513 128.448 27.874C127.991 27.6967 127.631 27.4447 127.37 27.118C127.118 26.7913 126.992 26.418 126.992 25.998L127.006 25.718H128.798V25.816Z" fill="#121725"/>
<defs>
<filter id="filter0_d" x="0" y="0" width="162" height="71" filterUnits="userSpaceOnUse" color-interpolation-filters="sRGB">
<feFlood flood-opacity="0" result="BackgroundImageFix"/>
<feColorMatrix in="SourceAlpha" type="matrix" values="0 0 0 0 0 0 0 0 0 0 0 0 0 0 0 0 0 0 127 0" result="hardAlpha"/>
<feMorphology radius="20" operator="erode" in="SourceAlpha" result="effect1_dropShadow"/>
<feOffset dy="25"/>
<feGaussianBlur stdDeviation="10"/>
<feColorMatrix type="matrix" values="0 0 0 0 0.329412 0 0 0 0 0.901961 0 0 0 0 0.686275 0 0 0 0.2 0"/>
<feBlend mode="normal" in2="BackgroundImageFix" result="effect1_dropShadow"/>
<feBlend mode="normal" in="SourceGraphic" in2="effect1_dropShadow" result="shape"/>
</filter>
</defs>
</svg>
